<svg id="visual" viewBox="0 0 960 540" width="960" height="540" xmlns="http://www.w3.org/2000/svg" xmlns:xlink="http://www.w3.org/1999/xlink" version="1.1"><path d="M0 82L14.5 83.8C29 85.7 58 89.3 87.2 92C116.3 94.7 145.7 96.3 174.8 88.2C204 80 233 62 262 56.7C291 51.3 320 58.7 349 59.7C378 60.7 407 55.3 436.2 52.7C465.3 50 494.7 50 523.8 53.5C553 57 582 64 611 65.7C640 67.3 669 63.7 698 69.2C727 74.7 756 89.3 785.2 94.8C814.3 100.3 843.7 96.7 872.8 97.5C902 98.3 931 103.7 945.5 106.3L960 109L960 0L945.5 0C931 0 902 0 872.8 0C843.7 0 814.3 0 785.2 0C756 0 727 0 698 0C669 0 640 0 611 0C582 0 553 0 523.8 0C494.7 0 465.3 0 436.2 0C407 0 378 0 349 0C320 0 291 0 262 0C233 0 204 0 174.8 0C145.7 0 116.3 0 87.2 0C58 0 29 0 14.5 0L0 0Z" fill="#115e59"></path><path d="M0 282L14.5 266.7C29 251.3 58 220.7 87.2 207.2C116.3 193.7 145.7 197.3 174.8 192.8C204 188.3 233 175.7 262 171.2C291 166.7 320 170.3 349 167.7C378 165 407 156 436.2 151.5C465.3 147 494.7 147 523.8 165.8C553 184.7 582 222.3 611 252C640 281.7 669 303.3 698 289.8C727 276.3 756 227.7 785.2 212.3C814.3 197 843.7 215 872.8 235.7C902 256.3 931 279.7 945.5 291.3L960 303L960 107L945.5 104.3C931 101.7 902 96.3 872.8 95.5C843.7 94.7 814.3 98.3 785.2 92.8C756 87.3 727 72.7 698 67.2C669 61.7 640 65.3 611 63.7C582 62 553 55 523.8 51.5C494.7 48 465.3 48 436.2 50.7C407 53.3 378 58.7 349 57.7C320 56.7 291 49.3 262 54.7C233 60 204 78 174.8 86.2C145.7 94.3 116.3 92.7 87.2 90C58 87.3 29 83.7 14.5 81.8L0 80Z" fill="#007d6c"></path><path d="M0 341L14.5 334.7C29 328.3 58 315.7 87.2 299.5C116.3 283.3 145.7 263.7 174.8 265.5C204 267.3 233 290.7 262 295.2C291 299.7 320 285.3 349 270C378 254.7 407 238.3 436.2 241C465.3 243.7 494.7 265.3 523.8 283.3C553 301.3 582 315.7 611 336.3C640 357 669 384 698 375C727 366 756 321 785.2 302.2C814.3 283.3 843.7 290.7 872.8 305.2C902 319.7 931 341.3 945.5 352.2L960 363L960 301L945.5 289.3C931 277.7 902 254.3 872.8 233.7C843.7 213 814.3 195 785.2 210.3C756 225.7 727 274.3 698 287.8C669 301.3 640 279.7 611 250C582 220.3 553 182.7 523.8 163.8C494.7 145 465.3 145 436.2 149.5C407 154 378 163 349 165.7C320 168.3 291 164.7 262 169.2C233 173.7 204 186.3 174.8 190.8C145.7 195.3 116.3 191.7 87.2 205.2C58 218.7 29 249.3 14.5 264.7L0 280Z" fill="#009d79"></path><path d="M0 433L14.5 424.8C29 416.7 58 400.3 87.2 381.5C116.3 362.7 145.7 341.3 174.8 335.2C204 329 233 338 262 337C291 336 320 325 349 316.8C378 308.7 407 303.3 436.2 309.7C465.3 316 494.7 334 523.8 345.7C553 357.3 582 362.7 611 379.8C640 397 669 426 698 420.7C727 415.3 756 375.7 785.2 363C814.3 350.3 843.7 364.7 872.8 381.7C902 398.7 931 418.3 945.5 428.2L960 438L960 361L945.5 350.2C931 339.3 902 317.7 872.8 303.2C843.7 288.7 814.3 281.3 785.2 300.2C756 319 727 364 698 373C669 382 640 355 611 334.3C582 313.7 553 299.3 523.8 281.3C494.7 263.3 465.3 241.7 436.2 239C407 236.3 378 252.7 349 268C320 283.3 291 297.7 262 293.2C233 288.7 204 265.3 174.8 263.5C145.7 261.7 116.3 281.3 87.2 297.5C58 313.7 29 326.3 14.5 332.7L0 339Z" fill="#20be80"></path><path d="M0 541L14.5 541C29 541 58 541 87.2 541C116.3 541 145.7 541 174.8 541C204 541 233 541 262 541C291 541 320 541 349 541C378 541 407 541 436.2 541C465.3 541 494.7 541 523.8 541C553 541 582 541 611 541C640 541 669 541 698 541C727 541 756 541 785.2 541C814.3 541 843.7 541 872.8 541C902 541 931 541 945.5 541L960 541L960 436L945.5 426.2C931 416.3 902 396.7 872.8 379.7C843.7 362.7 814.3 348.3 785.2 361C756 373.7 727 413.3 698 418.7C669 424 640 395 611 377.8C582 360.7 553 355.3 523.8 343.7C494.7 332 465.3 314 436.2 307.7C407 301.3 378 306.7 349 314.8C320 323 291 334 262 335C233 336 204 327 174.8 333.2C145.7 339.3 116.3 360.7 87.2 379.5C58 398.3 29 414.7 14.5 422.8L0 431Z" fill="#4ade80"></path></svg>